:SAMPLES-PER-SECOND 30
:FULLY-SPECIFIED
:DEGREES
249
root  43.5937 39.5779 -15.1199 176.329 -80.9358 -178.097
RightUpLeg  -16.8714 -1.32946 -6.91092
RightLeg  46.0671 -7.08763 -8.13304
RightFoot  1.76792 -0.331991 2.99219
RightToes  0.000482159 0.542163 -0.142577
Spine  12.1801 -1.60584 -1.87275
Spine1  5.83949 -2.33475 1.27461
HEad  -1.15412 12.4393 -3.46946
LeftShoulder1  7.91109 -11.799 -45.0468
LeftArm  -16.5519 24.2681 -25.9404
LeftForeArm  43.5821 -39.817 -6.6054
LeftHand  -0.25398 0.0180481 5.50724
RightShoulder  4.26875 7.37692 33.288
RightArm  -7.58168 -26.1801 36.7851
RightForeArm  -5.04345 25.7387 5.7807
RightHand  -2.15211 5.94852 -22.1587
LeftUpLeg  1.95747 2.49122 -7.07185
LeftLeg  10.1629 14.5666 -2.21694
LeftFoot  -13.6849 0.22613 7.0058
LeftToes  1.06246e-005 4.65855e-005 -8.18503e-006
250
root  42.4934 39.4721 -15.1596 174.328 -83.0781 -176.569
RightUpLeg  -19.4987 -2.41897 -5.64265
RightLeg  40.1322 -7.07423 -6.61205
RightFoot  1.47082 -0.460516 4.18434
RightToes  0.000482159 0.542163 -0.142577
Spine  13.4411 -1.94537 -2.03511
Spine1  5.60606 -2.80401 1.50413
HEad  -2.32687 11.6424 -3.27683
LeftShoulder1  7.9512 -11.8182 -45.2254
LeftArm  -17.2843 24.0071 -25.6578
LeftForeArm  44.9165 -42.1028 -7.19451
LeftHand  -0.25398 0.0180481 5.50724
RightShoulder  4.18992 7.23948 33.0567
RightArm  -7.30446 -27.3646 37.141
RightForeArm  -4.70342 26.2928 5.89179
RightHand  -2.10611 5.81004 -21.9588
LeftUpLeg  4.73374 2.17799 -7.07345
LeftLeg  9.56487 12.9229 -2.45731
LeftFoot  -14.9828 0.325374 7.38131
LeftToes  1.06246e-005 4.65855e-005 -8.18503e-006
251
root  41.3022 39.2502 -15.1928 176.316 -84.6507 -178.986
RightUpLeg  -21.5284 -4.4773 -4.41046
RightLeg  32.6989 -6.87592 -4.98857
RightFoot  1.5922 -0.433353 3.91928
RightToes  0.000482159 0.542163 -0.142577
Spine  14.2226 -2.03589 -2.32682
Spine1  5.68836 -2.91008 1.32539
HEad  -3.41181 10.6713 -3.24865
LeftShoulder1  7.9724 -11.8287 -45.3186
LeftArm  -18.0232 23.3059 -25.5632
LeftForeArm  45.8195 -44.3031 -7.82805
LeftHand  -0.25398 0.0180481 5.50724
RightShoulder  4.18484 7.2314 33.0385
RightArm  -6.63593 -28.1572 37.1292
RightForeArm  -4.25091 26.4173 5.89792
RightHand  -2.07533 5.74183 -21.7768
LeftUpLeg  7.16311 2.34904 -7.45736
LeftLeg  9.75795 11.3956 -2.48958
LeftFoot  -16.7045 0.462 7.7059
LeftToes  1.06246e-005 4.65855e-005 -8.18503e-006
252
root  40.002 38.9953 -15.2031 -178.114 -85.8247 175.351
RightUpLeg  -23.0325 -8.45177 -2.48863
RightLeg  23.4618 -4.88768 -2.74445
RightFoot  2.03779 -0.507909 4.43244
RightToes  0.000482159 0.542163 -0.142577
Spine  14.191 -2.0256 -2.46166
Spine1  6.02913 -2.84852 1.16834
HEad  -3.95717 9.64282 -3.12648
LeftShoulder1  7.99712 -11.8813 -45.3032
LeftArm  -18.6059 22.577 -25.6826
LeftForeArm  46.329 -46.4397 -8.51546
LeftHand  -0.25398 0.0180481 5.50724
RightShoulder  4.16979 7.20559 32.9919
RightArm  -5.77972 -28.5528 37.0086
RightForeArm  -3.79185 25.9025 5.75537
RightHand  -2.0499 5.65858 -21.6744
LeftUpLeg  9.53913 2.56069 -7.90236
LeftLeg  9.64343 10.2217 -2.64975
LeftFoot  -18.1095 0.581114 7.9692
LeftToes  1.06246e-005 4.65855e-005 -8.18503e-006
253
root  38.607 38.744 -15.178 -172.271 -86.9177 169.765
RightUpLeg  -23.7275 -11.9756 -0.712581
RightLeg  12.8511 -4.29443 0.171571
RightFoot  2.51569 -0.759136 6.39079
RightToes  0.000482159 0.542163 -0.142577
Spine  13.7111 -2.09226 -2.08333
Spine1  6.21885 -2.83126 1.1699
HEad  -3.80625 8.62044 -2.89327
LeftShoulder1  8.01777 -11.9269 -45.2856
LeftArm  -18.8544 22.0118 -25.9001
LeftForeArm  47.0412 -48.4729 -9.20805
LeftHand  -0.25398 0.0180481 5.50724
RightShoulder  4.12951 7.12678 32.9017
RightArm  -4.94863 -28.7041 36.6823
RightForeArm  -3.25459 24.8814 5.49106
RightHand  -1.9799 5.42532 -21.3902
LeftUpLeg  12.0608 2.74569 -8.0454
LeftLeg  8.87492 9.06312 -2.96478
LeftFoot  -19.1323 0.667275 8.09544
LeftToes  1.06246e-005 4.65855e-005 -8.18503e-006
